<svg xmlns="http://www.w3.org/2000/svg" viewBox="0 0 400 160" fill="currentColor">
  <defs>
    <mask id="wheels-y">
      <rect width="400" height="160" fill="white"/>
      <circle cx="100" cy="116" r="18" fill="black"/>
      <circle cx="302" cy="116" r="18" fill="black"/>
    </mask>
  </defs>
  <!-- Body: mid-height crossover, roofline between 3 and X, upright rear -->
  <path mask="url(#wheels-y)" d="
    M 30 134 L 30 106
    Q 30 100 36 98
    L 64 98
    Q 76 70 100 56
    Q 124 44 166 41
    Q 208 38 248 41
    Q 284 44 306 57
    Q 322 66 326 78
    L 366 78
    Q 372 78 372 88
    L 372 134 Z
  "/>
  <!-- Front tyre -->
  <circle cx="100" cy="116" r="21" fill="none" stroke="currentColor" stroke-width="6.5"/>
  <circle cx="100" cy="116" r="8"  fill="none" stroke="currentColor" stroke-width="2.5"/>
  <!-- Rear tyre -->
  <circle cx="302" cy="116" r="21" fill="none" stroke="currentColor" stroke-width="6.5"/>
  <circle cx="302" cy="116" r="8"  fill="none" stroke="currentColor" stroke-width="2.5"/>
  <!-- Ground line -->
  <rect x="22" y="136" width="356" height="3" rx="1.5" opacity="0.4"/>
</svg>
