<svg xmlns="http://www.w3.org/2000/svg" viewBox="0 0 400 160" fill="currentColor">
  <defs>
    <mask id="wheels-x">
      <rect width="400" height="160" fill="white"/>
      <circle cx="95"  cy="118" r="18" fill="black"/>
      <circle cx="308" cy="118" r="18" fill="black"/>
    </mask>
  </defs>
  <!-- Body: tall SUV, flatter roofline, higher ride height, falcon-wing hint on rear -->
  <path mask="url(#wheels-x)" d="
    M 26 136 L 26 106
    Q 26 100 32 98
    L 60 98
    Q 70 72 94 58
    Q 118 44 164 40
    Q 210 36 256 38
    Q 296 40 318 52
    Q 332 60 336 72
    Q 342 62 350 66
    Q 356 70 356 78
    L 372 78
    Q 378 78 378 88
    L 378 136 Z
  "/>
  <!-- Front tyre -->
  <circle cx="95"  cy="118" r="22" fill="none" stroke="currentColor" stroke-width="7"/>
  <circle cx="95"  cy="118" r="9"  fill="none" stroke="currentColor" stroke-width="2.5"/>
  <!-- Rear tyre -->
  <circle cx="308" cy="118" r="22" fill="none" stroke="currentColor" stroke-width="7"/>
  <circle cx="308" cy="118" r="9"  fill="none" stroke="currentColor" stroke-width="2.5"/>
  <!-- Ground line -->
  <rect x="18" y="138" width="364" height="3" rx="1.5" opacity="0.4"/>
</svg>
